<svg width="1166" height="222" viewBox="0 0 1166 222" fill="none" xmlns="http://www.w3.org/2000/svg">
<g clip-path="url(#clip0_84_236)">
<path d="M169.531 1C175.799 2.90887 181.702 4.55268 187.375 6.78069C199.969 11.7264 208.943 20.8504 215.706 32.3307C221.985 42.9898 223.776 54.7486 223.988 66.8636C224.073 71.6949 224.325 76.5599 223.867 81.3489C223.632 83.8034 222.639 87.0105 220.851 88.3009C218.066 90.3112 215.165 88.7958 212.618 86.2147C196.934 70.3201 181.089 54.5845 165.296 38.7966C161.996 35.4977 158.772 32.1186 155.373 28.9248C150.96 24.7779 145.537 22.8788 139.479 28.9734C115.864 52.7284 92.1199 76.3552 68.463 100.069C65.8554 102.683 63.0196 105.259 61.1492 108.37C58.8482 112.196 60.3228 115.844 63.4356 118.939C76.6707 132.099 89.8612 145.303 103.038 158.522C104.757 160.246 106.036 162.522 107.979 163.889C112.788 167.275 118.523 166.85 122.858 162.576C137.218 148.421 151.511 134.195 165.615 119.787C170.704 114.589 170.237 108.386 165.15 103.666C160.579 99.4244 154.721 99.8023 149.791 104.718C140.823 113.66 131.9 122.649 122.92 131.579C117.929 136.542 111.179 136.585 106.225 131.716C102.184 127.745 98.1741 123.742 94.2095 119.695C89.8559 115.251 89.8063 108.739 94.2064 104.319C109.255 89.2024 124.338 74.1193 139.46 59.0764C144.009 54.5516 149.913 54.4923 154.422 58.9733C169.669 74.1271 184.869 89.3283 200.024 104.575C204.485 109.063 204.441 115.011 199.936 119.526C173.451 146.067 146.94 172.582 120.389 199.057C115.923 203.509 108.946 203.404 104.417 198.884C77.9927 172.518 51.6403 146.08 25.185 119.745C20.5403 115.121 21.5822 108.243 25.695 103.868C30.1442 99.1348 34.855 94.6479 39.4482 90.0501C68.8915 60.5778 98.3338 31.1045 127.888 1.3158C141.688 1 155.375 1 169.531 1Z" fill="black"/>
<path d="M1167 133.532C1163.86 140.317 1161.21 146.938 1157.47 152.881C1151.64 162.164 1142.1 166.493 1131.9 168.814C1120.36 171.437 1109.19 169.865 1098.51 164.261C1086.34 157.876 1079.89 147.515 1077.07 134.655C1073.61 118.934 1077.01 104.49 1087.5 92.3065C1093.34 85.513 1101.23 81.2957 1110.17 79.3806C1127.51 75.6715 1142.76 79.4365 1155.48 92.023C1161.49 97.9704 1164.74 105.42 1166.66 113.826C1167 120.354 1167 126.709 1167 133.532ZM1118.15 98.385C1108.54 100.323 1102.12 105.926 1100.38 115.607C1099.45 120.792 1099.41 126.367 1100.18 131.587C1102.53 147.568 1120.05 154.923 1133.55 145.951C1139.77 141.82 1141.92 135.641 1143.23 128.623C1146.37 111.799 1136.38 97.267 1118.15 98.385Z" fill="black"/>
<path d="M89.5314 1C92.9794 4.97812 91.6161 7.99874 88.3654 11.2281C63.224 36.2046 38.208 61.3073 13.1382 86.356C8.16436 91.3256 5.09268 91.2792 1.3279 86.1489C1.00004 84.9333 1.00004 83.8667 1.36901 82.1768C2.15508 70.9877 1.48935 60.2398 3.22849 49.8963C6.27332 31.7871 16.6015 17.9378 32.7873 9.24132C39.6782 5.53887 47.5655 3.69079 55 1C66.3543 1 77.7085 1 89.5314 1Z" fill="black"/>
<path d="M139.469 223C134.867 219.645 134.691 215.816 138.586 211.918C162.365 188.119 186.165 164.342 209.934 140.534C211.444 139.021 212.466 136.796 214.225 135.816C216.22 134.702 218.849 134.074 221.084 134.317C222.182 134.437 223.837 137.002 223.839 138.462C223.863 156.189 225.647 174.095 216.217 190.589C205.916 208.607 191.044 219.498 170.195 222.647C159.979 223 149.958 223 139.469 223Z" fill="black"/>
<path d="M55.4684 223C49.0495 221.028 42.8797 219.546 37.1892 216.994C18.5721 208.647 6.67206 194.201 3.2922 174.222C1.32349 162.585 2.25541 150.445 2.0533 138.528C1.99643 135.175 5.47894 133.039 8.68417 134.385C10.298 135.062 11.7815 136.28 13.0413 137.537C35.8966 160.335 58.6732 183.212 81.5669 205.971C85.2073 209.591 86.102 213.685 84.2151 218.084C83.4448 219.88 80.979 220.949 79.1422 222.674C71.3122 223 63.6246 223 55.4684 223Z" fill="black"/>
<path d="M377.757 133.592C370.508 152.132 357.438 164.071 338.48 167.781C312.407 172.883 290.292 165.555 275.543 141.64C268.826 130.748 267.017 118.249 268.699 105.011C270.262 92.7131 274.529 81.9715 282.645 73.0635C291.782 63.0348 303.439 57.6762 317.167 55.8012C332.494 53.7078 346.441 56.5284 358.895 65.1422C367.705 71.235 374.334 79.5468 377.227 90.9974C368.899 90.9974 360.969 91.0674 353.044 90.9109C352.026 90.8908 350.722 89.9162 350.073 89.0095C343.683 80.083 334.875 76.005 324.118 76.5044C307.905 77.2569 297.029 85.6479 293.198 101.334C289.852 115.033 291.482 128.417 301.832 139.214C307.025 144.633 313.647 147.335 321.302 148.137C327.729 148.811 333.875 148.329 339.729 145.983C349.411 142.102 354.493 134.301 357.081 124.032C344.335 124.032 331.915 124.032 319.251 124.032C319.251 117.925 319.251 112.192 319.251 106.229C339.453 106.229 359.517 106.229 380.918 106.229C379.907 115.447 378.931 124.341 377.757 133.592Z" fill="black"/>
<path d="M1013.1 79.9103C1038.5 72.4014 1060.95 88.4911 1065.05 113.668C1067.28 127.323 1065.66 140.123 1058.03 151.875C1048.52 166.526 1032.11 172.996 1015.29 168.597C1012 167.739 1008.71 166.519 1005.78 164.839C1002.84 163.157 1000.36 160.689 997.186 158.178C997.186 161.512 997.186 164.394 997.186 167.638C989.393 167.638 982.008 167.638 974.309 167.638C974.309 128.583 974.309 89.5677 974.309 50.2759C981.72 50.2759 988.977 50.2759 996.816 50.2759C996.816 63.2421 996.816 76.2554 996.816 89.0684C1002.35 85.8997 1007.52 82.9384 1013.1 79.9103ZM1009.6 147.174C1015.08 147.604 1020.93 149.487 1025.97 148.191C1041.4 144.219 1045.72 125.886 1039.67 111.225C1035.97 102.255 1028.26 98.5256 1019.75 98.3929C1011.43 98.2631 1004.11 102.033 999.806 110.386C993.055 123.493 996.382 137.917 1009.6 147.174Z" fill="black"/>
<path d="M919.542 82.2223C923.105 84.8803 926.333 87.3589 929.74 89.9753C929.74 87.0974 929.74 83.9293 929.74 80.3833C937.587 80.3833 944.972 80.3833 952.681 80.3833C952.681 109.416 952.681 138.451 952.681 167.743C945.238 167.743 937.98 167.743 930.123 167.743C930.123 164.374 930.123 161.015 930.123 158.183C924.464 161.547 919.381 165.65 913.575 167.818C895.689 174.496 875.161 165.307 866.863 148.744C858.872 132.795 858.629 116.673 865.831 100.767C874.027 82.6633 895.794 71.5031 919.542 82.2223ZM885.012 116.837C885.35 122.459 884.785 128.327 886.234 133.646C888.486 141.913 894.241 147.656 903.103 148.917C912.78 150.293 921.455 147.665 926.422 138.814C931.708 129.398 931.763 119.221 926.714 109.527C922.911 102.225 914.751 97.2722 903.448 98.9696C893.428 100.474 888.159 107.047 885.012 116.837Z" fill="black"/>
<path d="M587.403 81.2669C574.298 90.0802 571.394 106.936 573.42 119.762C574.99 129.707 579.459 137.912 588.14 143.752C601.09 152.465 622.099 149.813 630.545 136.1C631.495 134.557 634.025 133.226 635.885 133.139C643.146 132.8 650.432 133 657.835 133C652.549 153.486 631.844 172.845 597.342 168.791C570.021 165.581 547.792 143.131 549.149 110.045C550.43 78.82 571.016 57.0316 603.159 55.1707C631.531 53.5282 653.989 71.7107 657.755 91.9952C649.878 91.9952 642.068 92.1125 634.27 91.8734C633.048 91.836 631.459 90.4279 630.747 89.2324C624.944 79.4922 611.436 73.5181 600.426 76.3784C596.078 77.5078 591.951 79.4837 587.403 81.2669Z" fill="black"/>
<path d="M476.982 109.368C477.467 116.665 477.936 123.532 478.436 130.834C456.313 130.834 434.904 130.834 413.465 130.834C414.555 143.776 421.692 149.582 433.304 150.735C438.719 151.272 444.483 149.393 448.204 144.4C450.536 141.272 453.115 139.457 457.493 139.863C463.43 140.413 469.456 140 475.976 140C473.834 148.611 469.262 155.465 462.743 160.547C446.699 173.055 423.818 173.024 408.198 161.989C396.686 153.856 390.874 142.409 390.021 128.439C389.406 118.346 390.878 108.733 395.718 99.5672C402.2 87.2915 412.689 81.494 425.744 78.9578C438.543 76.4715 450.319 78.8028 461.034 86.0486C469.217 91.5829 473.774 99.8318 476.982 109.368ZM451.606 106.069C447.947 99.5095 436.452 94.4819 426.202 98.3698C420.381 100.578 412.756 107.913 414.595 114.766C427.677 114.766 440.759 114.766 454.695 114.766C453.74 111.763 452.932 109.217 451.606 106.069Z" fill="black"/>
<path d="M697.827 81.6215C714.685 75.592 730.561 76.8007 744.957 87.0968C755.697 94.778 761.182 105.816 761.97 119.01C762.586 129.317 761.838 139.413 756.033 148.464C748.317 160.494 737.465 167.105 723.21 169.214C707.726 171.506 694.431 167.475 683.496 156.822C667.902 141.63 666.789 112.291 680.209 95.1823C684.916 89.1815 690.718 84.9645 697.827 81.6215ZM730.422 102.948C728.704 101.996 727.03 100.952 725.262 100.107C715.512 95.4473 702.462 99.3786 697.667 109.06C694.297 115.863 693.208 123.243 694.931 130.99C696.761 139.218 700.604 145.419 708.849 148.428C717.69 151.654 725.958 149.596 731.861 143.252C741.283 133.126 742.015 113.878 730.422 102.948Z" fill="black"/>
<path d="M534.001 149C536.119 149 537.764 149 539.701 149C539.701 155.302 539.701 161.364 539.701 168.41C531.367 167.943 522.878 168.36 514.765 166.81C501.417 164.26 497.568 154.485 497.131 142.91C496.585 128.473 497 114 497 99.1095C493.648 99.1095 490.567 99.1095 487.253 99.1095C487.253 92.6103 487.253 86.5441 487.253 80.0396C490.426 80.0396 493.497 80.0396 496.996 80.0396C496.996 72.5465 496.996 65.4716 496.996 58.207C504.707 58.207 511.984 58.207 519.704 58.207C519.704 65.1564 519.704 72.2283 519.704 79.7359C526.522 79.7359 532.928 79.7359 539.664 79.7359C539.664 86.2257 539.664 92.2914 539.664 98.8019C533.408 98.8019 527.004 98.8019 520 98.8019C520 109.319 520 119.407 520 129.496C520 133.159 519.862 136.829 520.033 140.484C520.301 146.227 522.788 148.642 528.534 148.984C530.193 149.083 531.863 149 534.001 149Z" fill="black"/>
<path d="M801.003 108C801.003 128.113 801.003 147.725 801.003 167.668C793.283 167.668 785.91 167.668 778.267 167.668C778.267 128.625 778.267 89.735 778.267 50.4224C785.537 50.4224 792.912 50.4224 801.003 50.4224C801.003 69.3672 801.003 88.4337 801.003 108Z" fill="black"/>
<path d="M823 162.862C823 125.124 823 87.8714 823 50.3105C830.647 50.3105 837.904 50.3105 845.584 50.3105C845.584 89.1916 845.584 128.203 845.584 167.607C838.411 167.607 831.035 167.607 823.289 167.607C823.195 166.224 823.098 164.786 823 162.862Z" fill="black"/>
</g>
<defs>
<clipPath id="clip0_84_236">
<rect width="1166" height="222" fill="white"/>
</clipPath>
</defs>
</svg>
